<svg id="Layer_2" data-name="Layer 2" xmlns="http://www.w3.org/2000/svg" viewBox="0 0 400 400.01"><defs><style>.cls-1{fill:#003449;}</style></defs><path class="cls-1" d="M400,199.74c0-32.34.15-64.69-.08-97a310.49,310.49,0,0,0-1.78-33.27c-3.8-33-26.95-58.54-59.34-66.17C325.72.19,312.39.19,299.16.15Q203.82-.16,108.5.05c-9.42,0-18.85.18-28.24.76a116,116,0,0,0-19.5,2.6C28.51,11.13,5.32,37,1.93,69.59A396.9,396.9,0,0,0,.15,109.67Q-.14,204.32.11,299A291.9,291.9,0,0,0,2,331.88c3.53,30.5,26.43,56.25,56.23,64.1,15,3.95,30.37,3.84,45.64,3.88q97.55.3,195.09,0c11.77,0,23.68-.39,35.28-2.19a74.85,74.85,0,0,0,62.22-58.94c2.57-12.55,3.11-25.67,3.28-38.54.43-33.47.14-67,.14-100.44ZM236.83,281.2a94.08,94.08,0,0,1-49.47,13.89c-1.2,0-2.4,0-3.61-.07-17.23-.61-34.66-5.64-51.82-14.92L110.8,301.23A8.67,8.67,0,0,1,98.54,289l21.13-21.13c-9.29-17.17-14.32-34.58-14.93-51.83a94.29,94.29,0,0,1,13.82-53.08c28.16-46.58,94.22-71.41,176.69-66.57a8.68,8.68,0,0,1,8.15,8.15C308.25,187,283.41,253,236.83,281.2Z"/><path class="cls-1" d="M133.38,171.91c-14.92,24.6-15.12,53.85-.84,83.1l96-96.06a8.67,8.67,0,1,1,12.26,12.27l-96,96c29.28,14.33,58.45,14.09,83.1-.84,39.5-23.93,61.15-80.82,58.56-153C214.19,110.77,157.31,132.4,133.38,171.91Z"/></svg>