<svg id="Layer_1" data-name="Layer 1" xmlns="http://www.w3.org/2000/svg" viewBox="0 0 273.26 84.03"><defs><style>.cls-1{fill:#003449;}</style></defs><path class="cls-1" d="M230.67,22.41c-1.86,4.52-3.74,9-5.61,13.58h11.37L230.8,22.4Z"/><path class="cls-1" d="M0,0V64.17H273.26V0ZM60.37,50.14c-.39.12-7.87.13-8.41,0V35.36c-1.41-.06-2.77,0-4.14,0H35.51V50.2H27.09V14c.39-.1,7.57-.13,8.4,0,0,.2,0,.42,0,.63V28.15H51.93V14c.39-.13,7.74-.17,8.44,0Zm42.7-15.39a18.59,18.59,0,0,1-1.54,7.67,13.19,13.19,0,0,1-8,7.34,19.53,19.53,0,0,1-5.72,1.05,22.2,22.2,0,0,1-6.75-.65,14.06,14.06,0,0,1-6.33-3.42,13.69,13.69,0,0,1-3.34-5.16,19.09,19.09,0,0,1-1.2-6.72c0-6.78,0-13.57,0-20.35v-.58h8.45c0,.22,0,.43,0,.64,0,6.6,0,13.19,0,19.79a12.94,12.94,0,0,0,.87,4.92,6.57,6.57,0,0,0,5.58,4.24,11,11,0,0,0,4-.16,6.4,6.4,0,0,0,4.76-4.16,13.42,13.42,0,0,0,.83-4.93q0-9.83,0-19.64v-.7h8.36v.58C103.08,21.26,103.09,28,103.07,34.75ZM141,50.14c-.37.12-27.54.14-28.07,0V13.93h27.37c.11.41.12,6.23,0,6.75h-19v7.79c1.4,0,2.8,0,4.19,0h12.59v6.6H121.27v8.34h19.64A67.11,67.11,0,0,1,141,50.14Zm34.83.06H149.29c-.11-.39-.16-35.25,0-36.27h8.4V43.31H175.8Zm32.87,0H182.16c-.12-.39-.17-35.24,0-36.27h8.4V43.31h18.16Zm42.08,0c-2.67,0-5.33,0-8,0a.58.58,0,0,1-.62-.45c-.91-2.23-1.83-4.45-2.75-6.68-.09-.21-.19-.43-.28-.65H222.33c-.07.17-.15.33-.22.5-1,2.29-1.9,4.57-2.83,6.86a.56.56,0,0,1-.6.42H210.9c-.12,0-.23,0-.46,0l16.17-36.27H235l16.21,36.25A3.2,3.2,0,0,1,250.75,50.23Z"/><path class="cls-1" d="M263.13,84c6,0,8.91-2.7,8.91-5.85,0-6.94-12.21-4.54-12.21-8,0-1.19,1.11-2.17,4-2.17a12.87,12.87,0,0,1,5.82,1.49l1.5-3.32a15.29,15.29,0,0,0-7.29-1.68c-6,0-8.85,2.68-8.85,5.89,0,7,12.21,4.6,12.21,8.13,0,1.16-1.17,2-4,2a13.32,13.32,0,0,1-6.93-2l-1.65,3.3A16.25,16.25,0,0,0,263.13,84m-28.65-3.72c-3.75,0-6.57-2.46-6.57-6s2.82-6.05,6.57-6.05,6.57,2.46,6.57,6.05-2.82,6-6.57,6m0,3.72c6.6,0,11.49-4.13,11.49-9.77s-4.89-9.78-11.49-9.78S223,68.64,223,74.26,227.85,84,234.48,84m-36.69-3.91V68.4h4.44c4.17,0,6.9,2.24,6.9,5.86s-2.73,5.86-6.9,5.86Zm-4.86,3.59h9.54c6.87,0,11.58-3.73,11.58-9.45s-4.71-9.45-11.58-9.45h-9.54Zm-16.44,0h4.86V64.81h-4.86Zm-16.38-18.9V76.28L149.66,64.81h-4v18.9h4.79V72.23l10.48,11.48h4V64.81ZM123.74,80.2V75.82h9.75v-3.4h-9.75v-4.1h11V64.81H118.91v18.9h16.26V80.2ZM98.12,83.71H103V68.37h6.72V64.81H91.4v3.56h6.72ZM77.39,64.81V76.28L67,64.81h-4v18.9h4.8V72.23L78.2,83.71h4V64.81ZM41.18,80.31c-3.75,0-6.57-2.46-6.57-6s2.82-6.05,6.57-6.05,6.57,2.46,6.57,6.05-2.82,6-6.57,6m0,3.72c6.6,0,11.49-4.13,11.49-9.77s-4.89-9.78-11.49-9.78-11.49,4.16-11.49,9.78S34.55,84,41.18,84M12.92,84a11.38,11.38,0,0,0,8.67-3.37l-3.12-2.59a7,7,0,0,1-5.28,2.24c-3.93,0-6.72-2.49-6.72-6s2.79-6.05,6.72-6.05a7.07,7.07,0,0,1,5.28,2.21l3.12-2.59A11.42,11.42,0,0,0,13,64.48c-6.54,0-11.4,4.08-11.4,9.78S6.41,84,12.92,84"/></svg>