<svg id="Layer_1" data-name="Layer 1" xmlns="http://www.w3.org/2000/svg" viewBox="0 0 400 400.01"><defs><style>.cls-1{fill:#003449;}</style></defs><path class="cls-1" d="M200,94.23A105.77,105.77,0,1,0,305.77,200,105.78,105.78,0,0,0,200,94.23Zm0,144.23a38.43,38.43,0,0,0,30.77-15.38,9.62,9.62,0,1,1,15.38,11.55,57.72,57.72,0,1,1,0-69.25,9.62,9.62,0,0,1-15.38,11.55A38.46,38.46,0,1,0,200,238.46Z"/><path class="cls-1" d="M400,199.74c0-32.34.15-64.69-.08-97a310.49,310.49,0,0,0-1.78-33.27c-3.8-33-26.95-58.54-59.34-66.17C325.72.19,312.39.19,299.16.15Q203.82-.16,108.5.05c-9.42,0-18.85.18-28.24.76a116,116,0,0,0-19.5,2.6C28.51,11.13,5.32,37,1.93,69.59A396.9,396.9,0,0,0,.15,109.67Q-.14,204.32.11,299A291.9,291.9,0,0,0,2,331.88c3.53,30.5,26.43,56.25,56.23,64.1,15,3.95,30.37,3.84,45.64,3.88q97.55.3,195.09,0c11.77,0,23.68-.39,35.28-2.19a74.85,74.85,0,0,0,62.22-58.94c2.57-12.55,3.11-25.67,3.28-38.54.43-33.47.14-67,.14-100.44ZM200,325A125,125,0,1,1,325,200,125,125,0,0,1,200,325Z"/></svg>