<svg id="Layer_3" data-name="Layer 3" xmlns="http://www.w3.org/2000/svg" viewBox="0 0 400 400.01"><defs><style>.cls-1{fill:#003449;}</style></defs><path class="cls-1" d="M400,199.74c0-32.34.15-64.69-.08-97a310.49,310.49,0,0,0-1.78-33.27c-3.8-33-26.95-58.54-59.34-66.17C325.72.19,312.39.19,299.16.15Q203.82-.16,108.5.05c-9.42,0-18.85.18-28.24.76a116,116,0,0,0-19.5,2.6C28.51,11.13,5.32,37,1.93,69.59A396.9,396.9,0,0,0,.15,109.67Q-.14,204.32.11,299A291.9,291.9,0,0,0,2,331.88c3.53,30.5,26.43,56.25,56.23,64.1,15,3.95,30.37,3.84,45.64,3.88q97.55.3,195.09,0c11.77,0,23.68-.39,35.28-2.19a74.85,74.85,0,0,0,62.22-58.94c2.57-12.55,3.11-25.67,3.28-38.54.43-33.47.14-67,.14-100.44ZM79.8,133.81,195.12,66.54a9.58,9.58,0,0,1,9.68,0l115.32,67.27A9.61,9.61,0,0,1,323.58,147a9.72,9.72,0,0,1-3.46,3.46L204.8,217.68a9.63,9.63,0,0,1-9.68,0L79.8,150.41a9.58,9.58,0,0,1,0-16.6ZM320.05,265.72,204.73,333a9.58,9.58,0,0,1-9.68,0L79.73,265.72a9.61,9.61,0,0,1,9.68-16.6l110.52,64.45,110.51-64.45a9.59,9.59,0,0,1,9.61,16.6Zm.07-57.65L204.8,275.33a9.58,9.58,0,0,1-9.68,0L79.8,208.07a9.61,9.61,0,0,1,9.61-16.6l110.52,64.44,110.51-64.44.22-.13a9.61,9.61,0,0,1,9.46,16.73Z"/><polygon class="cls-1" points="296.17 142.11 199.93 85.96 103.69 142.11 199.93 198.25 296.17 142.11"/></svg>