<?xml version="1.0" encoding="utf-8"?>
<!-- Generator: Adobe Illustrator 26.1.0, SVG Export Plug-In . SVG Version: 6.00 Build 0)  -->
<svg version="1.1" id="Layer_1" xmlns="http://www.w3.org/2000/svg" xmlns:xlink="http://www.w3.org/1999/xlink" x="0px" y="0px"
	 viewBox="0 0 48 48" style="enable-background:new 0 0 48 48;" xml:space="preserve">
<style type="text/css">
	.st0{fill:#BCC7D0;}
</style>
<path class="st0" d="M10.5,18v12c0,0.8-0.7,1.5-1.5,1.5S7.5,30.8,7.5,30V18c0-0.8,0.7-1.5,1.5-1.5S10.5,17.2,10.5,18z M16.5,4.5
	C15.7,4.5,15,5.2,15,6v36c0,0.8,0.7,1.5,1.5,1.5S18,42.8,18,42V6C18,5.2,17.3,4.5,16.5,4.5z M24,10.5c-0.8,0-1.5,0.7-1.5,1.5v24
	c0,0.8,0.7,1.5,1.5,1.5c0.8,0,1.5-0.7,1.5-1.5V12C25.5,11.2,24.8,10.5,24,10.5z M31.5,16.5c-0.8,0-1.5,0.7-1.5,1.5v12
	c0,0.8,0.7,1.5,1.5,1.5S33,30.8,33,30V18C33,17.2,32.3,16.5,31.5,16.5z M39,13.5c-0.8,0-1.5,0.7-1.5,1.5v18c0,0.8,0.7,1.5,1.5,1.5
	s1.5-0.7,1.5-1.5V15C40.5,14.2,39.8,13.5,39,13.5z"/>
</svg>
