<?xml version="1.0" encoding="utf-8"?>
<!-- Generator: Adobe Illustrator 26.1.0, SVG Export Plug-In . SVG Version: 6.00 Build 0)  -->
<svg version="1.1" id="Layer_1" xmlns="http://www.w3.org/2000/svg" xmlns:xlink="http://www.w3.org/1999/xlink" x="0px" y="0px"
	 viewBox="0 0 48 48" style="enable-background:new 0 0 48 48;" xml:space="preserve">
<style type="text/css">
	.st0{fill:#BCC7D0;}
</style>
<path class="st0" d="M32.6,18.4c0.6,0.6,0.6,1.5,0,2.1c0,0,0,0,0,0L22.1,31.1c-0.6,0.6-1.5,0.6-2.1,0c0,0,0,0,0,0l-4.5-4.5
	c-0.6-0.6-0.6-1.5,0-2.1c0.6-0.6,1.5-0.6,2.1,0l3.4,3.4l9.4-9.4C31,17.9,32,17.9,32.6,18.4C32.6,18.4,32.6,18.4,32.6,18.4z M42,9v30
	c0,1.7-1.3,3-3,3H9c-1.7,0-3-1.3-3-3V9c0-1.7,1.3-3,3-3h30C40.7,6,42,7.3,42,9z M39,39V9H9v30H39z"/>
</svg>
