<?xml version="1.0" encoding="utf-8"?>
<!-- Generator: Adobe Illustrator 26.1.0, SVG Export Plug-In . SVG Version: 6.00 Build 0)  -->
<svg version="1.1" id="Layer_1" xmlns="http://www.w3.org/2000/svg" xmlns:xlink="http://www.w3.org/1999/xlink" x="0px" y="0px"
	 viewBox="0 0 48 48" style="enable-background:new 0 0 48 48;" xml:space="preserve">
<style type="text/css">
	.st0{fill:#BCC7D0;}
</style>
<path class="st0" d="M12,19.7V7.5C12,6.7,11.3,6,10.5,6S9,6.7,9,7.5v12.2c-3.2,0.8-5.1,4.1-4.3,7.3c0.5,2.1,2.2,3.8,4.3,4.3v9.2
	c0,0.8,0.7,1.5,1.5,1.5s1.5-0.7,1.5-1.5v-9.2c3.2-0.8,5.1-4.1,4.3-7.3C15.8,21.9,14.1,20.2,12,19.7z M10.5,28.5c-1.7,0-3-1.3-3-3
	c0-1.7,1.3-3,3-3s3,1.3,3,3C13.5,27.2,12.2,28.5,10.5,28.5z M25.5,10.7V7.5C25.5,6.7,24.8,6,24,6c-0.8,0-1.5,0.7-1.5,1.5v3.2
	c-3.2,0.8-5.1,4.1-4.3,7.3c0.5,2.1,2.2,3.8,4.3,4.3v18.2c0,0.8,0.7,1.5,1.5,1.5c0.8,0,1.5-0.7,1.5-1.5V22.3c3.2-0.8,5.1-4.1,4.3-7.3
	C29.3,12.9,27.6,11.2,25.5,10.7z M24,19.5c-1.7,0-3-1.3-3-3s1.3-3,3-3c1.7,0,3,1.3,3,3S25.7,19.5,24,19.5z M43.5,31.5
	c0-2.7-1.9-5.1-4.5-5.8V7.5C39,6.7,38.3,6,37.5,6S36,6.7,36,7.5v18.2c-3.2,0.8-5.1,4.1-4.3,7.3c0.5,2.1,2.2,3.8,4.3,4.3v3.2
	c0,0.8,0.7,1.5,1.5,1.5s1.5-0.7,1.5-1.5v-3.2C41.6,36.6,43.5,34.2,43.5,31.5z M37.5,34.5c-1.7,0-3-1.3-3-3c0-1.7,1.3-3,3-3
	s3,1.3,3,3C40.5,33.2,39.2,34.5,37.5,34.5z"/>
</svg>
