<?xml version="1.0" encoding="utf-8"?>
<!-- Generator: Adobe Illustrator 26.1.0, SVG Export Plug-In . SVG Version: 6.00 Build 0)  -->
<svg version="1.1" id="Layer_1" xmlns="http://www.w3.org/2000/svg" xmlns:xlink="http://www.w3.org/1999/xlink" x="0px" y="0px"
	 viewBox="0 0 48 48" style="enable-background:new 0 0 48 48;" xml:space="preserve">
<style type="text/css">
	.st0{fill:#BCC7D0;}
</style>
<path class="st0" d="M41.3,29.7c-0.4-0.3-1-0.3-1.4-0.1c-1.9,0.9-4.1,0.1-5-1.8c-0.9-1.9-0.1-4.1,1.8-5c1-0.5,2.2-0.5,3.2,0
	c0.7,0.4,1.6,0,2-0.7c0.1-0.2,0.1-0.4,0.1-0.6v-8c0-1.7-1.3-3-3-3h-6.8c0-0.2,0-0.5,0-0.8c0-1.9-0.8-3.6-2.1-4.9
	c-2.7-2.6-7-2.4-9.5,0.3c-1.1,1.1-1.7,2.6-1.8,4.1c0,0.4,0,0.8,0,1.2H12c-1.7,0-3,1.3-3,3v6c-0.2,0-0.5,0-0.8,0
	c-1.9,0-3.6,0.8-4.9,2.1C2,23,1.4,24.8,1.5,26.7c0.2,3.4,2.9,6,6.2,6.3c0.4,0,0.8,0,1.2,0v6c0,1.7,1.3,3,3,3h27c1.7,0,3-1.3,3-3v-8
	C42,30.5,41.7,30,41.3,29.7z M39,39H12v-8c0-0.8-0.7-1.5-1.5-1.5c-0.2,0-0.4,0-0.6,0.1c-1.9,0.9-4.1,0.1-5-1.8
	c-0.9-1.9-0.1-4.1,1.8-5c1-0.5,2.2-0.5,3.2,0c0.7,0.4,1.6,0,2-0.7c0.1-0.2,0.1-0.4,0.1-0.6v-8h8.8c0.8,0,1.5-0.7,1.5-1.5
	c0-0.2,0-0.4-0.1-0.6c-0.9-1.9-0.1-4.1,1.8-5c1.9-0.9,4.1-0.1,5,1.8c0.5,1,0.5,2.2,0,3.2c-0.4,0.7,0,1.6,0.7,2
	c0.2,0.1,0.4,0.1,0.6,0.1H39v6c-0.4,0-0.8-0.1-1.2,0c-3.7,0.3-6.5,3.5-6.3,7.2c0.3,3.5,3.2,6.3,6.7,6.3c0.3,0,0.5,0,0.8,0V39z"/>
</svg>
